<svg width="1372" height="467" viewBox="0 0 1372 467" fill="none" xmlns="http://www.w3.org/2000/svg">
<path d="M158.155 137.43V256.15C158.155 282.297 151.353 301.73 137.75 314.45C124.147 327.17 104.272 333.53 78.125 333.53C64.345 333.53 51.2717 331.852 38.905 328.495C26.5383 325.138 16.2917 320.28 8.165 313.92L24.595 284.24C30.6017 289.187 38.1983 293.073 47.385 295.9C56.5717 298.903 65.7583 300.405 74.945 300.405C89.255 300.405 99.7667 297.137 106.48 290.6C113.37 284.24 116.815 274.523 116.815 261.45V255.355C106.038 267.192 91.0217 273.11 71.765 273.11C58.6917 273.11 46.6783 270.283 35.725 264.63C24.9483 258.8 16.38 250.673 10.02 240.25C3.66 229.827 0.48 217.813 0.48 204.21C0.48 190.607 3.66 178.593 10.02 168.17C16.38 157.747 24.9483 149.708 35.725 144.055C46.6783 138.225 58.6917 135.31 71.765 135.31C92.435 135.31 108.158 142.112 118.935 155.715V137.43H158.155ZM79.98 239.19C90.9333 239.19 99.855 236.01 106.745 229.65C113.812 223.113 117.345 214.633 117.345 204.21C117.345 193.787 113.812 185.395 106.745 179.035C99.855 172.498 90.9333 169.23 79.98 169.23C69.0267 169.23 60.0167 172.498 52.95 179.035C45.8833 185.395 42.35 193.787 42.35 204.21C42.35 214.633 45.8833 223.113 52.95 229.65C60.0167 236.01 69.0267 239.19 79.98 239.19ZM196.632 137.43H237.972V280H196.632V137.43ZM217.302 117.555C209.705 117.555 203.522 115.347 198.752 110.93C193.982 106.513 191.597 101.037 191.597 94.5C191.597 87.9633 193.982 82.4867 198.752 78.07C203.522 73.6533 209.705 71.445 217.302 71.445C224.898 71.445 231.082 73.565 235.852 77.805C240.622 82.045 243.007 87.345 243.007 93.705C243.007 100.595 240.622 106.337 235.852 110.93C231.082 115.347 224.898 117.555 217.302 117.555ZM315.824 156.245C320.77 149.355 327.395 144.143 335.699 140.61C344.179 137.077 353.895 135.31 364.849 135.31V173.47C360.255 173.117 357.164 172.94 355.574 172.94C343.737 172.94 334.462 176.297 327.749 183.01C321.035 189.547 317.679 199.44 317.679 212.69V280H276.339V137.43H315.824V156.245ZM446.158 135.31C468.242 135.31 485.202 140.61 497.038 151.21C508.875 161.633 514.793 177.445 514.793 198.645V280H476.103V262.245C468.33 275.495 453.843 282.12 432.643 282.12C421.69 282.12 412.15 280.265 404.023 276.555C396.073 272.845 389.978 267.722 385.738 261.185C381.498 254.648 379.378 247.228 379.378 238.925C379.378 225.675 384.325 215.252 394.218 207.655C404.288 200.058 419.747 196.26 440.593 196.26H473.453C473.453 187.25 470.715 180.36 465.238 175.59C459.762 170.643 451.547 168.17 440.593 168.17C432.997 168.17 425.488 169.407 418.068 171.88C410.825 174.177 404.642 177.357 399.518 181.42L384.678 152.535C392.452 147.058 401.727 142.818 412.503 139.815C423.457 136.812 434.675 135.31 446.158 135.31ZM442.978 254.295C450.045 254.295 456.317 252.705 461.793 249.525C467.27 246.168 471.157 241.31 473.453 234.95V220.375H445.098C428.138 220.375 419.658 225.94 419.658 237.07C419.658 242.37 421.69 246.61 425.753 249.79C429.993 252.793 435.735 254.295 442.978 254.295ZM597.523 140.61H634.093V172.41H598.583V280H557.243V172.41H535.248V140.61H557.243V134.25C557.243 117.997 562.013 105.1 571.553 95.56C581.27 86.02 594.873 81.25 612.363 81.25C618.546 81.25 624.376 81.9567 629.853 83.37C635.506 84.6067 640.188 86.4617 643.898 88.935L633.033 118.88C628.263 115.523 622.698 113.845 616.338 113.845C603.795 113.845 597.523 120.735 597.523 134.515V140.61ZM700.003 140.61H736.573V172.41H701.063V280H659.723V172.41H637.728V140.61H659.723V134.25C659.723 117.997 664.493 105.1 674.033 95.56C683.75 86.02 697.353 81.25 714.843 81.25C721.027 81.25 726.857 81.9567 732.333 83.37C737.987 84.6067 742.668 86.4617 746.378 88.935L735.513 118.88C730.743 115.523 725.178 113.845 718.818 113.845C706.275 113.845 700.003 120.735 700.003 134.515V140.61ZM895.012 209.245C895.012 209.775 894.747 213.485 894.217 220.375H786.362C788.306 229.208 792.899 236.187 800.142 241.31C807.386 246.433 816.396 248.995 827.172 248.995C834.592 248.995 841.129 247.935 846.782 245.815C852.612 243.518 858.001 239.985 862.947 235.215L884.942 259.065C871.516 274.435 851.906 282.12 826.112 282.12C810.036 282.12 795.814 279.028 783.447 272.845C771.081 266.485 761.541 257.74 754.827 246.61C748.114 235.48 744.757 222.848 744.757 208.715C744.757 194.758 748.026 182.215 754.562 171.085C761.276 159.778 770.374 151.033 781.857 144.85C793.517 138.49 806.502 135.31 820.812 135.31C834.769 135.31 847.401 138.313 858.707 144.32C870.014 150.327 878.847 158.983 885.207 170.29C891.744 181.42 895.012 194.405 895.012 209.245ZM821.077 166.58C811.714 166.58 803.852 169.23 797.492 174.53C791.132 179.83 787.246 187.073 785.832 196.26H856.057C854.644 187.25 850.757 180.095 844.397 174.795C838.037 169.318 830.264 166.58 821.077 166.58Z" fill="white"/>
<path d="M1225.65 94.5H1268.58V245.02H1361.59V280H1225.65V94.5Z" fill="#12B3AB"/>
<g filter="url(#filter0_i)">
<circle cx="1057.5" cy="189.5" r="148.5" fill="#EDF2F7"/>
</g>
<circle cx="1057.5" cy="189.5" r="128.5" stroke="#12B3AB" stroke-width="40"/>
<path d="M1075.81 71.4543C1077.73 68.5461 1077.79 65.5264 1077.48 63.5672C1077.19 61.6834 1076.49 60.1673 1075.96 59.1826C1074.88 57.1959 1073.37 55.4238 1072.01 54.0102C1069.18 51.0636 1065.25 47.9061 1060.91 45.035C1056.57 42.1639 1052.12 39.7838 1048.3 38.3318C1046.47 37.6353 1044.25 36.9453 1042 36.7286C1040.88 36.6213 1039.21 36.5722 1037.37 37.0399C1035.44 37.5263 1032.69 38.7622 1030.77 41.6704C1028.84 44.5787 1028.78 47.5983 1029.09 49.5575C1029.38 51.4413 1030.08 52.9574 1030.62 53.9421C1031.7 55.9288 1033.2 57.701 1034.56 59.1145C1037.39 62.0611 1041.32 65.2187 1045.66 68.0898C1050.01 70.9608 1054.45 73.3409 1058.27 74.7929C1060.1 75.4895 1062.32 76.1794 1064.58 76.3961C1065.69 76.5035 1067.36 76.5525 1069.21 76.0848C1071.13 75.5984 1073.89 74.3626 1075.81 71.4543Z" fill="white" stroke="black" stroke-width="20"/>
<path d="M1052.53 66.7074L1033.66 308.254C1032.93 317.553 1040.28 325.5 1049.61 325.5H1076.09C1077.58 325.5 1079.07 325.29 1080.51 324.875L1111.34 316.002C1118.46 313.949 1123.25 307.286 1122.89 299.876C1119.94 238.847 1115.76 153.12 1114.45 121.546C1114.15 114.507 1118.64 108.307 1125.38 106.259L1165.3 94.1261C1167.73 93.3861 1170.44 93.1403 1172.63 91.8423C1177.94 88.6888 1186.03 79.4655 1186.03 66.7074C1186.03 51.3235 1169.9 42.9497 1160.33 40.1827C1159.14 39.8384 1157.91 39.7074 1156.67 39.7074H1078.03C1059.4 39.7074 1053.53 55.7074 1052.53 66.7074Z" fill="white" stroke="black" stroke-width="20"/>
<circle cx="1107" cy="66" r="9" fill="black"/>
<rect x="1067" y="3" width="15" height="40" rx="7.5" fill="black" stroke="black" stroke-width="6"/>
<rect x="1095" y="3" width="15" height="40" rx="7.5" fill="black" stroke="black" stroke-width="6"/>
<path d="M1123 224.575C1123 240.399 1122.98 265 1112.77 265C1102.55 265 1086 240.399 1086 224.575C1086 208.752 1102.55 192 1112.77 192C1122.98 192 1123 208.752 1123 224.575Z" fill="black"/>
<path d="M1123 224.575C1123 240.399 1122.98 265 1112.77 265C1102.55 265 1086 240.399 1086 224.575C1086 208.752 1102.55 192 1112.77 192C1122.98 192 1123 208.752 1123 224.575Z" fill="black"/>
<path d="M1038 144.575C1038 160.399 1038.02 185 1048.23 185C1058.45 185 1075 160.399 1075 144.575C1075 128.752 1058.45 112 1048.23 112C1038.02 112 1038 128.752 1038 144.575Z" fill="black"/>
<path d="M1038 144.575C1038 160.399 1038.02 185 1048.23 185C1058.45 185 1075 160.399 1075 144.575C1075 128.752 1058.45 112 1048.23 112C1038.02 112 1038 128.752 1038 144.575Z" fill="black"/>
<path fill-rule="evenodd" clip-rule="evenodd" d="M1057.5 298C1117.42 298 1166 249.423 1166 189.5C1206 189.5 1117.42 189.5 1057.5 189.5C997.577 189.5 909 189.5 949 189.5C949 249.423 997.577 298 1057.5 298ZM1057.5 338C1139.51 338 1206 271.514 1206 189.5C1166 189.5 1139.51 189.5 1057.5 189.5C975.486 189.5 949 189.5 909 189.5C909 271.514 975.486 338 1057.5 338Z" fill="#12B3AB"/>
<path d="M1118 317.5C1165.2 419.1 1262.67 437.167 1305.5 433.5" stroke="#12B3AB" stroke-width="40" stroke-linejoin="round" stroke-dasharray="30 30"/>
<circle cx="1335" cy="430" r="37" fill="#12B3AB"/>
<defs>
<filter id="filter0_i" x="909" y="41" width="297" height="297" filterUnits="userSpaceOnUse" color-interpolation-filters="sRGB">
<feFlood flood-opacity="0" result="BackgroundImageFix"/>
<feBlend mode="normal" in="SourceGraphic" in2="BackgroundImageFix" result="shape"/>
<feColorMatrix in="SourceAlpha" type="matrix" values="0 0 0 0 0 0 0 0 0 0 0 0 0 0 0 0 0 0 127 0" result="hardAlpha"/>
<feOffset dx="-23" dy="44"/>
<feComposite in2="hardAlpha" operator="arithmetic" k2="-1" k3="1"/>
<feColorMatrix type="matrix" values="0 0 0 0 0.756863 0 0 0 0 0.8 0 0 0 0 0.847059 0 0 0 1 0"/>
<feBlend mode="normal" in2="shape" result="effect1_innerShadow"/>
</filter>
</defs>
</svg>