<svg width="1372" height="467" viewBox="0 0 1372 467" fill="none" xmlns="http://www.w3.org/2000/svg">
<path d="M158.155 137.43V256.15C158.155 282.297 151.353 301.73 137.75 314.45C124.147 327.17 104.272 333.53 78.125 333.53C64.345 333.53 51.2717 331.852 38.905 328.495C26.5383 325.138 16.2917 320.28 8.165 313.92L24.595 284.24C30.6017 289.187 38.1983 293.073 47.385 295.9C56.5717 298.903 65.7583 300.405 74.945 300.405C89.255 300.405 99.7667 297.137 106.48 290.6C113.37 284.24 116.815 274.523 116.815 261.45V255.355C106.038 267.192 91.0217 273.11 71.765 273.11C58.6917 273.11 46.6783 270.283 35.725 264.63C24.9483 258.8 16.38 250.673 10.02 240.25C3.66 229.827 0.48 217.813 0.48 204.21C0.48 190.607 3.66 178.593 10.02 168.17C16.38 157.747 24.9483 149.708 35.725 144.055C46.6783 138.225 58.6917 135.31 71.765 135.31C92.435 135.31 108.158 142.112 118.935 155.715V137.43H158.155ZM79.98 239.19C90.9333 239.19 99.855 236.01 106.745 229.65C113.812 223.113 117.345 214.633 117.345 204.21C117.345 193.787 113.812 185.395 106.745 179.035C99.855 172.498 90.9333 169.23 79.98 169.23C69.0267 169.23 60.0167 172.498 52.95 179.035C45.8833 185.395 42.35 193.787 42.35 204.21C42.35 214.633 45.8833 223.113 52.95 229.65C60.0167 236.01 69.0267 239.19 79.98 239.19ZM196.632 137.43H237.972V280H196.632V137.43ZM217.302 117.555C209.705 117.555 203.522 115.347 198.752 110.93C193.982 106.513 191.597 101.037 191.597 94.5C191.597 87.9633 193.982 82.4867 198.752 78.07C203.522 73.6533 209.705 71.445 217.302 71.445C224.898 71.445 231.082 73.565 235.852 77.805C240.622 82.045 243.007 87.345 243.007 93.705C243.007 100.595 240.622 106.337 235.852 110.93C231.082 115.347 224.898 117.555 217.302 117.555ZM315.824 156.245C320.77 149.355 327.395 144.143 335.699 140.61C344.179 137.077 353.895 135.31 364.849 135.31V173.47C360.255 173.117 357.164 172.94 355.574 172.94C343.737 172.94 334.462 176.297 327.749 183.01C321.035 189.547 317.679 199.44 317.679 212.69V280H276.339V137.43H315.824V156.245ZM446.158 135.31C468.242 135.31 485.202 140.61 497.038 151.21C508.875 161.633 514.793 177.445 514.793 198.645V280H476.103V262.245C468.33 275.495 453.843 282.12 432.643 282.12C421.69 282.12 412.15 280.265 404.023 276.555C396.073 272.845 389.978 267.722 385.738 261.185C381.498 254.648 379.378 247.228 379.378 238.925C379.378 225.675 384.325 215.252 394.218 207.655C404.288 200.058 419.747 196.26 440.593 196.26H473.453C473.453 187.25 470.715 180.36 465.238 175.59C459.762 170.643 451.547 168.17 440.593 168.17C432.997 168.17 425.488 169.407 418.068 171.88C410.825 174.177 404.642 177.357 399.518 181.42L384.678 152.535C392.452 147.058 401.727 142.818 412.503 139.815C423.457 136.812 434.675 135.31 446.158 135.31ZM442.978 254.295C450.045 254.295 456.317 252.705 461.793 249.525C467.27 246.168 471.157 241.31 473.453 234.95V220.375H445.098C428.138 220.375 419.658 225.94 419.658 237.07C419.658 242.37 421.69 246.61 425.753 249.79C429.993 252.793 435.735 254.295 442.978 254.295ZM597.523 140.61H634.093V172.41H598.583V280H557.243V172.41H535.248V140.61H557.243V134.25C557.243 117.997 562.013 105.1 571.553 95.56C581.27 86.02 594.873 81.25 612.363 81.25C618.546 81.25 624.376 81.9567 629.853 83.37C635.506 84.6067 640.188 86.4617 643.898 88.935L633.033 118.88C628.263 115.523 622.698 113.845 616.338 113.845C603.795 113.845 597.523 120.735 597.523 134.515V140.61ZM700.003 140.61H736.573V172.41H701.063V280H659.723V172.41H637.728V140.61H659.723V134.25C659.723 117.997 664.493 105.1 674.033 95.56C683.75 86.02 697.353 81.25 714.843 81.25C721.027 81.25 726.857 81.9567 732.333 83.37C737.987 84.6067 742.668 86.4617 746.378 88.935L735.513 118.88C730.743 115.523 725.178 113.845 718.818 113.845C706.275 113.845 700.003 120.735 700.003 134.515V140.61ZM895.012 209.245C895.012 209.775 894.747 213.485 894.217 220.375H786.362C788.306 229.208 792.899 236.187 800.142 241.31C807.386 246.433 816.396 248.995 827.172 248.995C834.592 248.995 841.129 247.935 846.782 245.815C852.612 243.518 858.001 239.985 862.947 235.215L884.942 259.065C871.516 274.435 851.906 282.12 826.112 282.12C810.036 282.12 795.814 279.028 783.447 272.845C771.081 266.485 761.541 257.74 754.827 246.61C748.114 235.48 744.757 222.848 744.757 208.715C744.757 194.758 748.026 182.215 754.562 171.085C761.276 159.778 770.374 151.033 781.857 144.85C793.517 138.49 806.502 135.31 820.812 135.31C834.769 135.31 847.401 138.313 858.707 144.32C870.014 150.327 878.847 158.983 885.207 170.29C891.744 181.42 895.012 194.405 895.012 209.245ZM821.077 166.58C811.714 166.58 803.852 169.23 797.492 174.53C791.132 179.83 787.246 187.073 785.832 196.26H856.057C854.644 187.25 850.757 180.095 844.397 174.795C838.037 169.318 830.264 166.58 821.077 166.58Z" fill="white"/>
<path d="M1225.65 94.5H1268.58V245.02H1361.59V280H1225.65V94.5Z" fill="#12B3AB"/>
<g filter="url(#filter0_i)">
<circle cx="1057.5" cy="189.5" r="148.5" fill="#EDF2F7"/>
</g>
<circle cx="1057.5" cy="189.5" r="128.5" stroke="#12B3AB" stroke-width="40"/>
<path d="M1075.81 71.4543C1077.73 68.5461 1077.79 65.5264 1077.48 63.5672C1077.19 61.6834 1076.49 60.1673 1075.96 59.1826C1074.88 57.1959 1073.37 55.4238 1072.01 54.0102C1069.18 51.0636 1065.25 47.9061 1060.91 45.035C1056.57 42.1639 1052.12 39.7838 1048.3 38.3318C1046.47 37.6353 1044.25 36.9453 1042 36.7286C1040.88 36.6213 1039.21 36.5722 1037.37 37.0399C1035.44 37.5263 1032.69 38.7622 1030.77 41.6704C1028.84 44.5787 1028.78 47.5983 1029.09 49.5575C1029.38 51.4413 1030.08 52.9574 1030.62 53.9421C1031.7 55.9288 1033.2 57.701 1034.56 59.1145C1037.39 62.0611 1041.32 65.2187 1045.66 68.0898C1050.01 70.9608 1054.45 73.3409 1058.27 74.7929C1060.1 75.4895 1062.32 76.1794 1064.58 76.3961C1065.69 76.5035 1067.36 76.5525 1069.21 76.0848C1071.13 75.5984 1073.89 74.3626 1075.81 71.4543Z" fill="white" stroke="black" stroke-width="20"/>
<path d="M1052.53 66.7074L1033.66 308.254C1032.93 317.553 1040.28 325.5 1049.61 325.5H1076.09C1077.58 325.5 1079.07 325.29 1080.51 324.875L1111.34 316.002C1118.46 313.949 1123.25 307.286 1122.89 299.876C1119.94 238.847 1115.76 153.12 1114.45 121.546C1114.15 114.507 1118.64 108.307 1125.38 106.259L1165.3 94.1261C1167.73 93.3861 1170.44 93.1403 1172.63 91.8423C1177.94 88.6888 1186.03 79.4655 1186.03 66.7074C1186.03 51.3235 1169.9 42.9497 1160.33 40.1827C1159.14 39.8384 1157.91 39.7074 1156.67 39.7074H1078.03C1059.4 39.7074 1053.53 55.7074 1052.53 66.7074Z" fill="white" stroke="black" stroke-width="20"/>
<circle cx="1107" cy="66" r="9" fill="black"/>
<rect x="1067" y="3" width="15" height="40" rx="7.5" fill="black" stroke="black" stroke-width="6"/>
<rect x="1095" y="3" width="15" height="40" rx="7.5" fill="black" stroke="black" stroke-width="6"/>
<path d="M1123 224.575C1123 240.399 1122.98 265 1112.77 265C1102.55 265 1086 240.399 1086 224.575C1086 208.752 1102.55 192 1112.77 192C1122.98 192 1123 208.752 1123 224.575Z" fill="black"/>
<path d="M1123 224.575C1123 240.399 1122.98 265 1112.77 265C1102.55 265 1086 240.399 1086 224.575C1086 208.752 1102.55 192 1112.77 192C1122.98 192 1123 208.752 1123 224.575Z" fill="black"/>
<path d="M1038 144.575C1038 160.399 1038.02 185 1048.23 185C1058.45 185 1075 160.399 1075 144.575C1075 128.752 1058.45 112 1048.23 112C1038.02 112 1038 128.752 1038 144.575Z" fill="black"/>
<path d="M1038 144.575C1038 160.399 1038.02 185 1048.23 185C1058.45 185 1075 160.399 1075 144.575C1075 128.752 1058.45 112 1048.23 112C1038.02 112 1038 128.752 1038 144.575Z" fill="black"/>
<path fill-rule="evenodd" clip-rule="evenodd" d="M1057.5 298C1117.42 298 1166 249.423 1166 189.5C1206 189.5 1117.42 189.5 1057.5 189.5C997.577 189.5 909 189.5 949 189.5C949 249.423 997.577 298 1057.5 298ZM1057.5 338C1139.51 338 1206 271.514 1206 189.5C1166 189.5 1139.51 189.5 1057.5 189.5C975.486 189.5 949 189.5 909 189.5C909 271.514 975.486 338 1057.5 338Z" fill="#12B3AB"/>
<path d="M1118 317.5C1165.2 419.1 1262.67 437.167 1305.5 433.5" stroke="#12B3AB" stroke-width="40" stroke-linejoin="round" stroke-dasharray="30 30"/>
<circle cx="1335" cy="430" r="37" fill="#12B3AB"/>
<path d="M198.384 329.386C202.151 329.386 204.903 327.503 205.773 324.702L203.02 323.929C202.295 325.861 200.617 326.827 198.384 326.827C195.039 326.827 192.733 324.665 192.6 320.693H206.062V319.486C206.062 312.58 201.957 310.213 198.094 310.213C193.071 310.213 189.739 314.173 189.739 319.872C189.739 325.571 193.023 329.386 198.384 329.386ZM192.6 318.23C192.793 315.344 194.834 312.773 198.094 312.773C201.185 312.773 203.165 315.091 203.165 318.23H192.6ZM215.854 329.435C219.09 329.435 220.781 327.696 221.36 326.489H221.505V329H224.354V316.781C224.354 310.889 219.863 310.213 217.496 310.213C214.695 310.213 211.508 311.179 210.059 314.56L212.763 315.526C213.391 314.173 214.876 312.724 217.593 312.724C220.213 312.724 221.505 314.113 221.505 316.491V316.588C221.505 317.964 220.104 317.844 216.724 318.278C213.283 318.725 209.528 319.486 209.528 323.736C209.528 327.358 212.329 329.435 215.854 329.435ZM216.289 326.875C214.019 326.875 212.377 325.861 212.377 323.881C212.377 321.707 214.357 321.031 216.579 320.741C217.786 320.597 221.022 320.259 221.505 319.679V322.287C221.505 324.605 219.67 326.875 216.289 326.875ZM242.692 314.608C241.798 311.976 239.794 310.213 236.123 310.213C232.211 310.213 229.314 312.435 229.314 315.574C229.314 318.134 230.835 319.848 234.24 320.645L237.331 321.369C239.202 321.804 240.084 322.697 240.084 323.977C240.084 325.571 238.393 326.875 235.737 326.875C233.407 326.875 231.946 325.873 231.439 323.881L228.734 324.557C229.398 327.708 231.994 329.386 235.785 329.386C240.096 329.386 243.03 327.032 243.03 323.832C243.03 321.249 241.412 319.619 238.104 318.81L235.351 318.134C233.153 317.59 232.163 316.854 232.163 315.429C232.163 313.835 233.854 312.676 236.123 312.676C238.611 312.676 239.637 314.053 240.132 315.332L242.692 314.608ZM249.154 335.955C251.726 335.955 253.537 334.59 254.612 331.705L262.508 310.503L259.393 310.455L254.273 325.233H254.08L248.961 310.455H245.87L252.728 329.097L252.197 330.545C251.158 333.371 249.879 333.636 247.802 333.105L247.077 335.616C247.367 335.761 248.188 335.955 249.154 335.955ZM283.326 336.341C287.769 336.341 291.343 334.312 291.343 329.531V310.455H288.59V313.401H288.301C287.673 312.435 286.514 310.213 282.892 310.213C278.207 310.213 274.971 313.932 274.971 319.631C274.971 325.426 278.352 328.71 282.843 328.71C286.465 328.71 287.624 326.585 288.252 325.571H288.494V329.338C288.494 332.429 286.32 333.83 283.326 333.83C279.958 333.83 278.774 332.055 278.014 331.028L275.744 332.622C276.903 334.566 279.185 336.341 283.326 336.341ZM283.23 326.151C279.656 326.151 277.82 323.446 277.82 319.582C277.82 315.815 279.607 312.773 283.23 312.773C286.707 312.773 288.542 315.574 288.542 319.582C288.542 323.688 286.659 326.151 283.23 326.151ZM296.559 329H299.409V317.264C299.409 314.753 301.389 312.918 304.093 312.918C304.854 312.918 305.639 313.062 305.832 313.111V310.213C305.506 310.189 304.757 310.165 304.335 310.165C302.113 310.165 300.181 311.42 299.505 313.256H299.312V310.455H296.559V329ZM314.667 329.435C317.903 329.435 319.593 327.696 320.173 326.489H320.317V329H323.167V316.781C323.167 310.889 318.675 310.213 316.309 310.213C313.508 310.213 310.32 311.179 308.871 314.56L311.576 315.526C312.204 314.173 313.689 312.724 316.406 312.724C319.026 312.724 320.317 314.113 320.317 316.491V316.588C320.317 317.964 318.917 317.844 315.536 318.278C312.095 318.725 308.34 319.486 308.34 323.736C308.34 327.358 311.141 329.435 314.667 329.435ZM315.102 326.875C312.832 326.875 311.19 325.861 311.19 323.881C311.19 321.707 313.17 321.031 315.391 320.741C316.599 320.597 319.835 320.259 320.317 319.679V322.287C320.317 324.605 318.482 326.875 315.102 326.875ZM328.368 335.955H331.217V326.151H331.459C332.086 327.165 333.294 329.386 336.868 329.386C341.504 329.386 344.74 325.668 344.74 319.776C344.74 313.932 341.504 310.213 336.819 310.213C333.197 310.213 332.086 312.435 331.459 313.401H331.121V310.455H328.368V335.955ZM331.169 319.727C331.169 315.574 333.004 312.773 336.481 312.773C340.104 312.773 341.89 315.815 341.89 319.727C341.89 323.688 340.055 326.827 336.481 326.827C333.052 326.827 331.169 323.929 331.169 319.727ZM351.936 317.844C351.936 314.608 354.001 312.773 356.814 312.773C359.494 312.773 361.112 314.463 361.112 317.409V329H363.961V317.216C363.961 312.447 361.426 310.213 357.635 310.213C354.713 310.213 353.047 311.433 352.177 313.352H351.936V304.273H349.086V329H351.936V317.844ZM390.424 316.636C390.424 308.812 385.836 303.935 379.51 303.935C373.183 303.935 368.595 308.812 368.595 316.636C368.595 324.46 373.183 329.338 379.51 329.338C381.127 329.338 382.625 329.024 383.965 328.42L386.126 331.318H389.41L386.186 327.032C388.819 324.871 390.424 321.273 390.424 316.636ZM378.544 321.273L382.214 326.078C381.369 326.38 380.463 326.537 379.51 326.537C375.018 326.537 371.493 323.06 371.493 316.636C371.493 310.213 375.018 306.736 379.51 306.736C384.001 306.736 387.527 310.213 387.527 316.636C387.527 320.367 386.343 323.096 384.46 324.738L381.828 321.273H378.544ZM395.459 329H409.948V326.344H398.453V304.273H395.459V329ZM431.294 329.386C435.4 329.386 438.104 326.875 438.587 323.591H435.738C435.206 325.619 433.516 326.827 431.294 326.827C427.914 326.827 425.74 324.026 425.74 319.727C425.74 315.526 427.962 312.773 431.294 312.773C433.806 312.773 435.303 314.318 435.738 316.009H438.587C438.104 312.531 435.158 310.213 431.246 310.213C426.223 310.213 422.891 314.173 422.891 319.824C422.891 325.378 426.078 329.386 431.294 329.386ZM450.287 329.386C455.309 329.386 458.69 325.571 458.69 319.824C458.69 314.028 455.309 310.213 450.287 310.213C445.264 310.213 441.883 314.028 441.883 319.824C441.883 325.571 445.264 329.386 450.287 329.386ZM450.287 326.827C446.471 326.827 444.733 323.543 444.733 319.824C444.733 316.105 446.471 312.773 450.287 312.773C454.102 312.773 455.841 316.105 455.841 319.824C455.841 323.543 454.102 326.827 450.287 326.827ZM470.042 329.386C473.616 329.386 474.824 327.165 475.452 326.151H475.79V329H478.542V304.273H475.693V313.401H475.452C474.824 312.435 473.713 310.213 470.091 310.213C465.406 310.213 462.17 313.932 462.17 319.776C462.17 325.668 465.406 329.386 470.042 329.386ZM470.429 326.827C466.855 326.827 465.02 323.688 465.02 319.727C465.02 315.815 466.807 312.773 470.429 312.773C473.906 312.773 475.741 315.574 475.741 319.727C475.741 323.929 473.858 326.827 470.429 326.827ZM491.932 329.386C495.699 329.386 498.452 327.503 499.322 324.702L496.569 323.929C495.844 325.861 494.166 326.827 491.932 326.827C488.588 326.827 486.282 324.665 486.149 320.693H499.611V319.486C499.611 312.58 495.506 310.213 491.643 310.213C486.62 310.213 483.287 314.173 483.287 319.872C483.287 325.571 486.572 329.386 491.932 329.386ZM486.149 318.23C486.342 315.344 488.383 312.773 491.643 312.773C494.733 312.773 496.714 315.091 496.714 318.23H486.149ZM521.767 310.455H517.613V308.571C517.613 306.736 518.386 305.77 520.27 305.77C521.091 305.77 521.574 305.963 521.863 306.06L522.684 303.597C522.25 303.403 521.381 303.114 519.98 303.114C517.324 303.114 514.764 304.707 514.764 307.895V310.455H511.77V312.869H514.764V329H517.613V312.869H521.767V310.455ZM525.76 329H528.61V317.264C528.61 314.753 530.59 312.918 533.294 312.918C534.055 312.918 534.84 313.062 535.033 313.111V310.213C534.707 310.189 533.958 310.165 533.536 310.165C531.314 310.165 529.382 311.42 528.706 313.256H528.513V310.455H525.76V329ZM545.38 329.386C550.403 329.386 553.784 325.571 553.784 319.824C553.784 314.028 550.403 310.213 545.38 310.213C540.358 310.213 536.977 314.028 536.977 319.824C536.977 325.571 540.358 329.386 545.38 329.386ZM545.38 326.827C541.565 326.827 539.826 323.543 539.826 319.824C539.826 316.105 541.565 312.773 545.38 312.773C549.196 312.773 550.934 316.105 550.934 319.824C550.934 323.543 549.196 326.827 545.38 326.827ZM558.133 329H560.983V317.409C560.983 314.692 562.963 312.773 565.184 312.773C567.346 312.773 568.855 314.185 568.855 316.298V329H571.753V316.926C571.753 314.536 573.25 312.773 575.858 312.773C577.886 312.773 579.625 313.847 579.625 316.588V329H582.474V316.588C582.474 312.229 580.132 310.213 576.824 310.213C574.167 310.213 572.224 311.433 571.27 313.352H571.077C570.159 311.372 568.541 310.213 566.102 310.213C563.687 310.213 561.9 311.372 561.128 313.352H560.886V310.455H558.133V329ZM599.082 335.955C601.654 335.955 603.465 334.59 604.539 331.705L612.436 310.503L609.32 310.455L604.201 325.233H604.008L598.889 310.455H595.798L602.656 329.097L602.124 330.545C601.086 333.371 599.806 333.636 597.73 333.105L597.005 335.616C597.295 335.761 598.116 335.955 599.082 335.955ZM623.076 329.386C628.098 329.386 631.479 325.571 631.479 319.824C631.479 314.028 628.098 310.213 623.076 310.213C618.053 310.213 614.672 314.028 614.672 319.824C614.672 325.571 618.053 329.386 623.076 329.386ZM623.076 326.827C619.26 326.827 617.522 323.543 617.522 319.824C617.522 316.105 619.26 312.773 623.076 312.773C626.891 312.773 628.63 316.105 628.63 319.824C628.63 323.543 626.891 326.827 623.076 326.827ZM647.516 321.418C647.516 324.895 644.86 326.489 642.735 326.489C640.368 326.489 638.678 324.75 638.678 322.045V310.455H635.829V322.239C635.829 326.972 638.34 329.241 641.817 329.241C644.618 329.241 646.454 327.744 647.323 325.861H647.516V329H650.366V310.455H647.516V321.418ZM655.585 329H658.434V317.264C658.434 314.753 660.414 312.918 663.119 312.918C663.879 312.918 664.664 313.062 664.857 313.111V310.213C664.531 310.189 663.783 310.165 663.36 310.165C661.138 310.165 659.207 311.42 658.531 313.256H658.337V310.455H655.585V329ZM684.8 329.386C688.374 329.386 689.581 327.165 690.209 326.151H690.547V329H693.3V304.273H690.451V313.401H690.209C689.581 312.435 688.471 310.213 684.849 310.213C680.164 310.213 676.928 313.932 676.928 319.776C676.928 325.668 680.164 329.386 684.8 329.386ZM685.187 326.827C681.613 326.827 679.778 323.688 679.778 319.727C679.778 315.815 681.564 312.773 685.187 312.773C688.664 312.773 690.499 315.574 690.499 319.727C690.499 323.929 688.616 326.827 685.187 326.827ZM704.372 329.435C707.608 329.435 709.298 327.696 709.878 326.489H710.023V329H712.872V316.781C712.872 310.889 708.381 310.213 706.014 310.213C703.213 310.213 700.025 311.179 698.577 314.56L701.281 315.526C701.909 314.173 703.394 312.724 706.111 312.724C708.731 312.724 710.023 314.113 710.023 316.491V316.588C710.023 317.964 708.622 317.844 705.241 318.278C701.8 318.725 698.045 319.486 698.045 323.736C698.045 327.358 700.846 329.435 704.372 329.435ZM704.807 326.875C702.537 326.875 700.895 325.861 700.895 323.881C700.895 321.707 702.875 321.031 705.096 320.741C706.304 320.597 709.54 320.259 710.023 319.679V322.287C710.023 324.605 708.187 326.875 704.807 326.875ZM726.138 310.455H722.178V306.011H719.328V310.455H716.527V312.869H719.328V324.46C719.328 327.696 721.936 329.241 724.351 329.241C725.414 329.241 726.09 329.048 726.476 328.903L725.897 326.344C725.655 326.392 725.269 326.489 724.641 326.489C723.385 326.489 722.178 326.102 722.178 323.688V312.869H726.138V310.455ZM735.882 329.435C739.118 329.435 740.808 327.696 741.387 326.489H741.532V329H744.382V316.781C744.382 310.889 739.89 310.213 737.524 310.213C734.723 310.213 731.535 311.179 730.086 314.56L732.791 315.526C733.419 314.173 734.904 312.724 737.62 312.724C740.24 312.724 741.532 314.113 741.532 316.491V316.588C741.532 317.964 740.132 317.844 736.751 318.278C733.31 318.725 729.555 319.486 729.555 323.736C729.555 327.358 732.356 329.435 735.882 329.435ZM736.316 326.875C734.047 326.875 732.404 325.861 732.404 323.881C732.404 321.707 734.385 321.031 736.606 320.741C737.814 320.597 741.049 320.259 741.532 319.679V322.287C741.532 324.605 739.697 326.875 736.316 326.875ZM749.969 329H752.722V326.151H753.06C753.688 327.165 754.895 329.386 758.469 329.386C763.105 329.386 766.341 325.668 766.341 319.776C766.341 313.932 763.105 310.213 758.421 310.213C754.798 310.213 753.688 312.435 753.06 313.401H752.818V304.273H749.969V329ZM752.77 319.727C752.77 315.574 754.605 312.773 758.083 312.773C761.705 312.773 763.492 315.815 763.492 319.727C763.492 323.688 761.656 326.827 758.083 326.827C754.654 326.827 752.77 323.929 752.77 319.727ZM776.157 329.435C779.393 329.435 781.083 327.696 781.663 326.489H781.808V329H784.657V316.781C784.657 310.889 780.166 310.213 777.799 310.213C774.998 310.213 771.811 311.179 770.362 314.56L773.066 315.526C773.694 314.173 775.179 312.724 777.896 312.724C780.516 312.724 781.808 314.113 781.808 316.491V316.588C781.808 317.964 780.407 317.844 777.026 318.278C773.585 318.725 769.83 319.486 769.83 323.736C769.83 327.358 772.632 329.435 776.157 329.435ZM776.592 326.875C774.322 326.875 772.68 325.861 772.68 323.881C772.68 321.707 774.66 321.031 776.882 320.741C778.089 320.597 781.325 320.259 781.808 319.679V322.287C781.808 324.605 779.972 326.875 776.592 326.875ZM802.994 314.608C802.101 311.976 800.097 310.213 796.426 310.213C792.514 310.213 789.616 312.435 789.616 315.574C789.616 318.134 791.138 319.848 794.543 320.645L797.634 321.369C799.505 321.804 800.386 322.697 800.386 323.977C800.386 325.571 798.696 326.875 796.04 326.875C793.71 326.875 792.249 325.873 791.741 323.881L789.037 324.557C789.701 327.708 792.297 329.386 796.088 329.386C800.398 329.386 803.332 327.032 803.332 323.832C803.332 321.249 801.714 319.619 798.406 318.81L795.653 318.134C793.456 317.59 792.466 316.854 792.466 315.429C792.466 313.835 794.156 312.676 796.426 312.676C798.913 312.676 799.94 314.053 800.435 315.332L802.994 314.608ZM815.397 329.386C819.164 329.386 821.917 327.503 822.786 324.702L820.034 323.929C819.309 325.861 817.631 326.827 815.397 326.827C812.053 326.827 809.747 324.665 809.614 320.693H823.076V319.486C823.076 312.58 818.971 310.213 815.107 310.213C810.085 310.213 806.752 314.173 806.752 319.872C806.752 325.571 810.036 329.386 815.397 329.386ZM809.614 318.23C809.807 315.344 811.847 312.773 815.107 312.773C818.198 312.773 820.178 315.091 820.178 318.23H809.614Z" fill="white"/>
<defs>
<filter id="filter0_i" x="909" y="41" width="297" height="297" filterUnits="userSpaceOnUse" color-interpolation-filters="sRGB">
<feFlood flood-opacity="0" result="BackgroundImageFix"/>
<feBlend mode="normal" in="SourceGraphic" in2="BackgroundImageFix" result="shape"/>
<feColorMatrix in="SourceAlpha" type="matrix" values="0 0 0 0 0 0 0 0 0 0 0 0 0 0 0 0 0 0 127 0" result="hardAlpha"/>
<feOffset dx="-23" dy="44"/>
<feComposite in2="hardAlpha" operator="arithmetic" k2="-1" k3="1"/>
<feColorMatrix type="matrix" values="0 0 0 0 0.756863 0 0 0 0 0.8 0 0 0 0 0.847059 0 0 0 1 0"/>
<feBlend mode="normal" in2="shape" result="effect1_innerShadow"/>
</filter>
</defs>
</svg>