<svg width="2003" height="519" viewBox="0 0 2003 519" fill="none" xmlns="http://www.w3.org/2000/svg">
<path d="M186.809 71.4543C188.732 68.5461 188.79 65.5264 188.485 63.5672C188.191 61.6834 187.493 60.1673 186.957 59.1826C185.876 57.1959 184.372 55.4238 183.014 54.0102C180.182 51.0636 176.251 47.9061 171.909 45.035C167.567 42.1639 163.123 39.7838 159.302 38.3318C157.47 37.6353 155.25 36.9453 152.999 36.7286C151.883 36.6213 150.215 36.5722 148.366 37.0399C146.444 37.5263 143.688 38.7622 141.765 41.6704C139.842 44.5787 139.784 47.5983 140.089 49.5575C140.383 51.4413 141.081 52.9574 141.617 53.9421C142.698 55.9288 144.202 57.701 145.56 59.1145C148.392 62.0611 152.323 65.2187 156.665 68.0898C161.007 70.9608 165.451 73.3409 169.272 74.7929C171.104 75.4895 173.324 76.1794 175.575 76.3961C176.691 76.5035 178.36 76.5525 180.208 76.0848C182.13 75.5984 184.886 74.3626 186.809 71.4543Z" fill="#EDF2F7" stroke="black" stroke-width="20"/>
<path d="M93.0201 494.261L101.628 392.261C102.366 383.511 95.4627 376 86.6809 376H78C69.7157 376 63 382.716 63 391V493C63 501.284 69.7539 508 78.0382 508C85.8335 508 92.3646 502.029 93.0201 494.261Z" fill="#EDF2F7" stroke="black" stroke-width="20"/>
<path d="M206.982 491.216L215.682 384.216C216.392 375.481 209.494 368 200.731 368H192C183.716 368 177 374.716 177 383V490C177 498.284 183.732 505 192.016 505C199.829 505 206.348 499.003 206.982 491.216Z" fill="#EDF2F7" stroke="black" stroke-width="20"/>
<path d="M10.0308 313.707C11.0028 333.635 9.11115 337.971 18.1894 494.339C18.6401 502.102 25.0715 508.207 32.8471 508.207C40.7591 508.207 47.2488 501.94 47.5238 494.032L50.4936 408.651C50.7933 400.036 57.8639 393.207 66.4839 393.207H132C140.449 393.207 147.441 399.777 147.968 408.209L153.185 491.674C153.66 499.281 159.969 505.207 167.591 505.207C175.164 505.207 181.449 499.355 181.988 491.802L189.031 393.207C189.031 389 200.631 390.507 217.031 375.707C233.431 360.908 236.197 344.541 235.531 338.207C232.538 276.081 226.988 159.306 225.441 121.486C225.153 114.448 229.638 108.307 236.378 106.259L276.295 94.1261C278.73 93.3861 281.436 93.1403 283.625 91.8423C288.943 88.6888 297.031 79.4655 297.031 66.7074C297.031 51.3235 280.899 42.9497 271.334 40.1827C270.143 39.8384 268.907 39.7074 267.668 39.7074H189.031C170.402 39.7074 164.531 55.7074 163.531 66.7074L148.135 254.727C147.497 262.51 141.338 268.654 133.531 268.793C113.293 269.152 83.4137 268.207 63.5308 268.207C32.5 268.207 9.03078 293.207 10.0308 313.707Z" fill="#EDF2F7" stroke="black" stroke-width="20"/>
<circle cx="218" cy="66" r="9" fill="black"/>
<rect x="178" y="3" width="15" height="40" rx="7.5" fill="black" stroke="black" stroke-width="6"/>
<rect x="206" y="3" width="15" height="40" rx="7.5" fill="black" stroke="black" stroke-width="6"/>
<path d="M234 224.575C234 240.399 233.983 265 223.766 265C213.549 265 197 240.399 197 224.575C197 208.752 213.549 192 223.766 192C233.983 192 234 208.752 234 224.575Z" fill="black"/>
<path d="M234 224.575C234 240.399 233.983 265 223.766 265C213.549 265 197 240.399 197 224.575C197 208.752 213.549 192 223.766 192C233.983 192 234 208.752 234 224.575Z" fill="black"/>
<path d="M149 144.575C149 160.399 149.017 185 159.234 185C169.451 185 186 160.399 186 144.575C186 128.752 169.451 112 159.234 112C149.017 112 149 128.752 149 144.575Z" fill="black"/>
<path d="M149 144.575C149 160.399 149.017 185 159.234 185C169.451 185 186 160.399 186 144.575C186 128.752 169.451 112 159.234 112C149.017 112 149 128.752 149 144.575Z" fill="black"/>
<path d="M85.4544 267.414C105.591 266.469 136.899 265.021 137.507 277.986C138.115 290.95 107.794 313.417 87.6573 314.362C67.5211 315.307 45.2176 295.309 44.6093 282.345C44.001 269.38 65.3181 268.359 85.4544 267.414Z" fill="black"/>
<path d="M85.4544 267.414C105.591 266.469 136.899 265.021 137.507 277.986C138.115 290.95 107.794 313.417 87.6573 314.362C67.5211 315.307 45.2176 295.309 44.6093 282.345C44.001 269.38 65.3181 268.359 85.4544 267.414Z" fill="black"/>
<path d="M231 350.5C231 372.315 194 387 187 407.5C165.185 407.5 155 382.315 155 360.5C155 338.685 176.685 325 198.5 325C220.315 325 231 328.685 231 350.5Z" fill="black"/>
<path d="M444.34 280.335H483.56V355.595C473.49 363.192 461.83 369.022 448.58 373.085C435.33 377.148 421.992 379.18 408.565 379.18C389.308 379.18 371.995 375.117 356.625 366.99C341.255 358.687 329.153 347.292 320.32 332.805C311.663 318.142 307.335 301.623 307.335 283.25C307.335 264.877 311.663 248.447 320.32 233.96C329.153 219.297 341.343 207.902 356.89 199.775C372.437 191.472 389.927 187.32 409.36 187.32C425.613 187.32 440.365 190.058 453.615 195.535C466.865 201.012 477.995 208.962 487.005 219.385L459.445 244.825C446.195 230.868 430.207 223.89 411.48 223.89C399.643 223.89 389.132 226.363 379.945 231.31C370.758 236.257 363.603 243.235 358.48 252.245C353.357 261.255 350.795 271.59 350.795 283.25C350.795 294.733 353.357 304.98 358.48 313.99C363.603 323 370.67 330.067 379.68 335.19C388.867 340.137 399.29 342.61 410.95 342.61C423.317 342.61 434.447 339.96 444.34 334.66V280.335ZM660.178 305.245C660.178 305.775 659.913 309.485 659.383 316.375H551.528C553.472 325.208 558.065 332.187 565.308 337.31C572.552 342.433 581.562 344.995 592.338 344.995C599.758 344.995 606.295 343.935 611.948 341.815C617.778 339.518 623.167 335.985 628.113 331.215L650.108 355.065C636.682 370.435 617.072 378.12 591.278 378.12C575.202 378.12 560.98 375.028 548.613 368.845C536.247 362.485 526.707 353.74 519.993 342.61C513.28 331.48 509.923 318.848 509.923 304.715C509.923 290.758 513.192 278.215 519.728 267.085C526.442 255.778 535.54 247.033 547.023 240.85C558.683 234.49 571.668 231.31 585.978 231.31C599.935 231.31 612.567 234.313 623.873 240.32C635.18 246.327 644.013 254.983 650.373 266.29C656.91 277.42 660.178 290.405 660.178 305.245ZM586.243 262.58C576.88 262.58 569.018 265.23 562.658 270.53C556.298 275.83 552.412 283.073 550.998 292.26H621.223C619.81 283.25 615.923 276.095 609.563 270.795C603.203 265.318 595.43 262.58 586.243 262.58ZM779.656 369.11C775.593 372.113 770.558 374.41 764.551 376C758.721 377.413 752.538 378.12 746.001 378.12C729.041 378.12 715.879 373.792 706.516 365.135C697.329 356.478 692.736 343.758 692.736 326.975V268.41H670.741V236.61H692.736V201.895H734.076V236.61H769.586V268.41H734.076V326.445C734.076 332.452 735.578 337.133 738.581 340.49C741.761 343.67 746.178 345.26 751.831 345.26C758.368 345.26 763.933 343.493 768.526 339.96L779.656 369.11ZM941.776 379.18C927.113 379.18 912.891 377.237 899.111 373.35C885.508 369.287 874.554 364.075 866.251 357.715L880.826 325.385C888.776 331.215 898.228 335.897 909.181 339.43C920.134 342.963 931.088 344.73 942.041 344.73C954.231 344.73 963.241 342.963 969.071 339.43C974.901 335.72 977.816 330.862 977.816 324.855C977.816 320.438 976.049 316.817 972.516 313.99C969.159 310.987 964.743 308.602 959.266 306.835C953.966 305.068 946.723 303.125 937.536 301.005C923.403 297.648 911.831 294.292 902.821 290.935C893.811 287.578 886.038 282.19 879.501 274.77C873.141 267.35 869.961 257.457 869.961 245.09C869.961 234.313 872.876 224.597 878.706 215.94C884.536 207.107 893.281 200.128 904.941 195.005C916.778 189.882 931.176 187.32 948.136 187.32C959.973 187.32 971.544 188.733 982.851 191.56C994.158 194.387 1004.05 198.45 1012.53 203.75L999.281 236.345C982.144 226.628 965.008 221.77 947.871 221.77C935.858 221.77 926.936 223.713 921.106 227.6C915.453 231.487 912.626 236.61 912.626 242.97C912.626 249.33 915.894 254.1 922.431 257.28C929.144 260.283 939.303 263.287 952.906 266.29C967.039 269.647 978.611 273.003 987.621 276.36C996.631 279.717 1004.32 285.017 1010.68 292.26C1017.21 299.503 1020.48 309.308 1020.48 321.675C1020.48 332.275 1017.48 341.992 1011.47 350.825C1005.64 359.482 996.808 366.372 984.971 371.495C973.134 376.618 958.736 379.18 941.776 379.18ZM1138.86 369.11C1134.79 372.113 1129.76 374.41 1123.75 376C1117.92 377.413 1111.74 378.12 1105.2 378.12C1088.24 378.12 1075.08 373.792 1065.72 365.135C1056.53 356.478 1051.94 343.758 1051.94 326.975V268.41H1029.94V236.61H1051.94V201.895H1093.28V236.61H1128.79V268.41H1093.28V326.445C1093.28 332.452 1094.78 337.133 1097.78 340.49C1100.96 343.67 1105.38 345.26 1111.03 345.26C1117.57 345.26 1123.13 343.493 1127.73 339.96L1138.86 369.11ZM1219.57 231.31C1241.65 231.31 1258.61 236.61 1270.45 247.21C1282.28 257.633 1288.2 273.445 1288.2 294.645V376H1249.51V358.245C1241.74 371.495 1227.25 378.12 1206.05 378.12C1195.1 378.12 1185.56 376.265 1177.43 372.555C1169.48 368.845 1163.39 363.722 1159.15 357.185C1154.91 350.648 1152.79 343.228 1152.79 334.925C1152.79 321.675 1157.73 311.252 1167.63 303.655C1177.7 296.058 1193.15 292.26 1214 292.26H1246.86C1246.86 283.25 1244.12 276.36 1238.65 271.59C1233.17 266.643 1224.95 264.17 1214 264.17C1206.4 264.17 1198.9 265.407 1191.48 267.88C1184.23 270.177 1178.05 273.357 1172.93 277.42L1158.09 248.535C1165.86 243.058 1175.13 238.818 1185.91 235.815C1196.86 232.812 1208.08 231.31 1219.57 231.31ZM1216.39 350.295C1223.45 350.295 1229.72 348.705 1235.2 345.525C1240.68 342.168 1244.56 337.31 1246.86 330.95V316.375H1218.51C1201.55 316.375 1193.07 321.94 1193.07 333.07C1193.07 338.37 1195.1 342.61 1199.16 345.79C1203.4 348.793 1209.14 350.295 1216.39 350.295ZM1365.1 252.245C1370.05 245.355 1376.67 240.143 1384.98 236.61C1393.46 233.077 1403.17 231.31 1414.13 231.31V269.47C1409.53 269.117 1406.44 268.94 1404.85 268.94C1393.01 268.94 1383.74 272.297 1377.03 279.01C1370.31 285.547 1366.96 295.44 1366.96 308.69V376H1325.62V233.43H1365.1V252.245ZM1535.58 369.11C1531.52 372.113 1526.48 374.41 1520.47 376C1514.64 377.413 1508.46 378.12 1501.92 378.12C1484.96 378.12 1471.8 373.792 1462.44 365.135C1453.25 356.478 1448.66 343.758 1448.66 326.975V268.41H1426.66V236.61H1448.66V201.895H1490V236.61H1525.51V268.41H1490V326.445C1490 332.452 1491.5 337.133 1494.5 340.49C1497.68 343.67 1502.1 345.26 1507.75 345.26C1514.29 345.26 1519.86 343.493 1524.45 339.96L1535.58 369.11ZM1694.04 305.245C1694.04 305.775 1693.78 309.485 1693.25 316.375H1585.39C1587.33 325.208 1591.93 332.187 1599.17 337.31C1606.41 342.433 1615.42 344.995 1626.2 344.995C1633.62 344.995 1640.16 343.935 1645.81 341.815C1651.64 339.518 1657.03 335.985 1661.98 331.215L1683.97 355.065C1670.54 370.435 1650.93 378.12 1625.14 378.12C1609.06 378.12 1594.84 375.028 1582.48 368.845C1570.11 362.485 1560.57 353.74 1553.86 342.61C1547.14 331.48 1543.79 318.848 1543.79 304.715C1543.79 290.758 1547.05 278.215 1553.59 267.085C1560.3 255.778 1569.4 247.033 1580.89 240.85C1592.55 234.49 1605.53 231.31 1619.84 231.31C1633.8 231.31 1646.43 234.313 1657.74 240.32C1669.04 246.327 1677.88 254.983 1684.24 266.29C1690.77 277.42 1694.04 290.405 1694.04 305.245ZM1620.11 262.58C1610.74 262.58 1602.88 265.23 1596.52 270.53C1590.16 275.83 1586.27 283.073 1584.86 292.26H1655.09C1653.67 283.25 1649.79 276.095 1643.43 270.795C1637.07 265.318 1629.29 262.58 1620.11 262.58ZM1866.78 179.37V376H1827.3V359.57C1817.05 371.937 1802.21 378.12 1782.78 378.12C1769.35 378.12 1757.16 375.117 1746.21 369.11C1735.43 363.103 1726.95 354.535 1720.77 343.405C1714.59 332.275 1711.49 319.378 1711.49 304.715C1711.49 290.052 1714.59 277.155 1720.77 266.025C1726.95 254.895 1735.43 246.327 1746.21 240.32C1757.16 234.313 1769.35 231.31 1782.78 231.31C1800.98 231.31 1815.2 237.052 1825.44 248.535V179.37H1866.78ZM1789.93 344.2C1800.36 344.2 1809.01 340.667 1815.9 333.6C1822.79 326.357 1826.24 316.728 1826.24 304.715C1826.24 292.702 1822.79 283.162 1815.9 276.095C1809.01 268.852 1800.36 265.23 1789.93 265.23C1779.33 265.23 1770.59 268.852 1763.7 276.095C1756.81 283.162 1753.36 292.702 1753.36 304.715C1753.36 316.728 1756.81 326.357 1763.7 333.6C1770.59 340.667 1779.33 344.2 1789.93 344.2Z" fill="#5661B3"/>
<path d="M1899.74 190.5H1949.03L1940.82 311.605H1907.96L1899.74 190.5ZM1924.39 378.12C1917.15 378.12 1911.05 375.823 1906.1 371.23C1901.33 366.46 1898.95 360.718 1898.95 354.005C1898.95 347.292 1901.33 341.727 1906.1 337.31C1910.87 332.717 1916.97 330.42 1924.39 330.42C1931.81 330.42 1937.9 332.717 1942.67 337.31C1947.44 341.727 1949.83 347.292 1949.83 354.005C1949.83 360.718 1947.36 366.46 1942.41 371.23C1937.64 375.823 1931.63 378.12 1924.39 378.12Z" fill="#12B3AB"/>
</svg>
