<svg width="1653" height="467" viewBox="0 0 1300 467" fill="none" xmlns="http://www.w3.org/2000/svg">
<path d="M166.155 137.43V256.15C166.155 282.297 159.353 301.73 145.75 314.45C132.147 327.17 112.272 333.53 86.125 333.53C72.345 333.53 59.2717 331.852 46.905 328.495C34.5383 325.138 24.2917 320.28 16.165 313.92L32.595 284.24C38.6017 289.187 46.1983 293.073 55.385 295.9C64.5717 298.903 73.7583 300.405 82.945 300.405C97.255 300.405 107.767 297.137 114.48 290.6C121.37 284.24 124.815 274.523 124.815 261.45V255.355C114.038 267.192 99.0217 273.11 79.765 273.11C66.6917 273.11 54.6783 270.283 43.725 264.63C32.9483 258.8 24.38 250.673 18.02 240.25C11.66 229.827 8.48 217.813 8.48 204.21C8.48 190.607 11.66 178.593 18.02 168.17C24.38 157.747 32.9483 149.708 43.725 144.055C54.6783 138.225 66.6917 135.31 79.765 135.31C100.435 135.31 116.158 142.112 126.935 155.715V137.43H166.155ZM87.98 239.19C98.9333 239.19 107.855 236.01 114.745 229.65C121.812 223.113 125.345 214.633 125.345 204.21C125.345 193.787 121.812 185.395 114.745 179.035C107.855 172.498 98.9333 169.23 87.98 169.23C77.0267 169.23 68.0167 172.498 60.95 179.035C53.8833 185.395 50.35 193.787 50.35 204.21C50.35 214.633 53.8833 223.113 60.95 229.65C68.0167 236.01 77.0267 239.19 87.98 239.19ZM204.632 137.43H245.972V280H204.632V137.43ZM225.302 117.555C217.705 117.555 211.522 115.347 206.752 110.93C201.982 106.513 199.597 101.037 199.597 94.5C199.597 87.9633 201.982 82.4867 206.752 78.07C211.522 73.6533 217.705 71.445 225.302 71.445C232.898 71.445 239.082 73.565 243.852 77.805C248.622 82.045 251.007 87.345 251.007 93.705C251.007 100.595 248.622 106.337 243.852 110.93C239.082 115.347 232.898 117.555 225.302 117.555ZM323.824 156.245C328.77 149.355 335.395 144.143 343.699 140.61C352.179 137.077 361.895 135.31 372.849 135.31V173.47C368.255 173.117 365.164 172.94 363.574 172.94C351.737 172.94 342.462 176.297 335.749 183.01C329.035 189.547 325.679 199.44 325.679 212.69V280H284.339V137.43H323.824V156.245ZM454.158 135.31C476.242 135.31 493.202 140.61 505.038 151.21C516.875 161.633 522.793 177.445 522.793 198.645V280H484.103V262.245C476.33 275.495 461.843 282.12 440.643 282.12C429.69 282.12 420.15 280.265 412.023 276.555C404.073 272.845 397.978 267.722 393.738 261.185C389.498 254.648 387.378 247.228 387.378 238.925C387.378 225.675 392.325 215.252 402.218 207.655C412.288 200.058 427.747 196.26 448.593 196.26H481.453C481.453 187.25 478.715 180.36 473.238 175.59C467.762 170.643 459.547 168.17 448.593 168.17C440.997 168.17 433.488 169.407 426.068 171.88C418.825 174.177 412.642 177.357 407.518 181.42L392.678 152.535C400.452 147.058 409.727 142.818 420.503 139.815C431.457 136.812 442.675 135.31 454.158 135.31ZM450.978 254.295C458.045 254.295 464.317 252.705 469.793 249.525C475.27 246.168 479.157 241.31 481.453 234.95V220.375H453.098C436.138 220.375 427.658 225.94 427.658 237.07C427.658 242.37 429.69 246.61 433.753 249.79C437.993 252.793 443.735 254.295 450.978 254.295ZM605.523 140.61H642.093V172.41H606.583V280H565.243V172.41H543.248V140.61H565.243V134.25C565.243 117.997 570.013 105.1 579.553 95.56C589.27 86.02 602.873 81.25 620.363 81.25C626.546 81.25 632.376 81.9567 637.853 83.37C643.506 84.6067 648.188 86.4617 651.898 88.935L641.033 118.88C636.263 115.523 630.698 113.845 624.338 113.845C611.795 113.845 605.523 120.735 605.523 134.515V140.61ZM708.003 140.61H744.573V172.41H709.063V280H667.723V172.41H645.728V140.61H667.723V134.25C667.723 117.997 672.493 105.1 682.033 95.56C691.75 86.02 705.353 81.25 722.843 81.25C729.027 81.25 734.857 81.9567 740.333 83.37C745.987 84.6067 750.668 86.4617 754.378 88.935L743.513 118.88C738.743 115.523 733.178 113.845 726.818 113.845C714.275 113.845 708.003 120.735 708.003 134.515V140.61ZM903.012 209.245C903.012 209.775 902.747 213.485 902.217 220.375H794.362C796.306 229.208 800.899 236.187 808.142 241.31C815.386 246.433 824.396 248.995 835.172 248.995C842.592 248.995 849.129 247.935 854.782 245.815C860.612 243.518 866.001 239.985 870.947 235.215L892.942 259.065C879.516 274.435 859.906 282.12 834.112 282.12C818.036 282.12 803.814 279.028 791.447 272.845C779.081 266.485 769.541 257.74 762.827 246.61C756.114 235.48 752.757 222.848 752.757 208.715C752.757 194.758 756.026 182.215 762.562 171.085C769.276 159.778 778.374 151.033 789.857 144.85C801.517 138.49 814.502 135.31 828.812 135.31C842.769 135.31 855.401 138.313 866.707 144.32C878.014 150.327 886.847 158.983 893.207 170.29C899.744 181.42 903.012 194.405 903.012 209.245ZM829.077 166.58C819.714 166.58 811.852 169.23 805.492 174.53C799.132 179.83 795.246 187.073 793.832 196.26H864.057C862.644 187.25 858.757 180.095 852.397 174.795C846.037 169.318 838.264 166.58 829.077 166.58Z" fill="#5661B3"/>
<path d="M1233.65 94.5H1276.58V245.02H1369.59V280H1233.65V94.5Z" fill="#12B3AB"/>
<g filter="url(#filter0_i)">
<circle cx="1065.5" cy="189.5" r="148.5" fill="#EDF2F7"/>
</g>
<circle cx="1065.5" cy="189.5" r="136" stroke="#12B3AB" stroke-width="25"/>
<path d="M1083.81 71.4543C1085.73 68.5461 1085.79 65.5264 1085.48 63.5672C1085.19 61.6834 1084.49 60.1673 1083.96 59.1826C1082.88 57.1959 1081.37 55.4238 1080.01 54.0102C1077.18 51.0636 1073.25 47.9061 1068.91 45.035C1064.57 42.1639 1060.12 39.7838 1056.3 38.3318C1054.47 37.6353 1052.25 36.9453 1050 36.7286C1048.88 36.6213 1047.21 36.5722 1045.37 37.0399C1043.44 37.5263 1040.69 38.7622 1038.77 41.6704C1036.84 44.5787 1036.78 47.5983 1037.09 49.5575C1037.38 51.4413 1038.08 52.9574 1038.62 53.9421C1039.7 55.9288 1041.2 57.701 1042.56 59.1145C1045.39 62.0611 1049.32 65.2187 1053.66 68.0898C1058.01 70.9608 1062.45 73.3409 1066.27 74.7929C1068.1 75.4895 1070.32 76.1794 1072.58 76.3961C1073.69 76.5035 1075.36 76.5525 1077.21 76.0848C1079.13 75.5984 1081.89 74.3626 1083.81 71.4543Z" fill="white" stroke="black" stroke-width="20"/>
<path d="M1060.53 66.7074L1041.66 308.254C1040.93 317.553 1048.28 325.5 1057.61 325.5H1084.09C1085.58 325.5 1087.07 325.29 1088.51 324.875L1119.34 316.002C1126.46 313.949 1131.25 307.286 1130.89 299.876C1127.94 238.847 1123.76 153.12 1122.45 121.546C1122.15 114.507 1126.64 108.307 1133.38 106.259L1173.3 94.1261C1175.73 93.3861 1178.44 93.1403 1180.63 91.8423C1185.94 88.6888 1194.03 79.4655 1194.03 66.7074C1194.03 51.3235 1177.9 42.9497 1168.33 40.1827C1167.14 39.8384 1165.91 39.7074 1164.67 39.7074H1086.03C1067.4 39.7074 1061.53 55.7074 1060.53 66.7074Z" fill="white" stroke="black" stroke-width="20"/>
<path d="M1041.5 310V310C1040.19 318.291 1046.59 325.792 1054.99 325.792H1084.09C1085.58 325.792 1087.07 325.582 1088.51 325.168L1119.93 316.124C1126.78 314.151 1131.06 307.801 1132.43 300.802C1133.14 297.147 1133.68 296.861 1131.5 292.5" stroke="#12B3AB" stroke-width="20"/>
<circle cx="1115" cy="66" r="9" fill="black"/>
<rect x="1075" y="3" width="15" height="40" rx="7.5" fill="black" stroke="black" stroke-width="6"/>
<rect x="1103" y="3" width="15" height="40" rx="7.5" fill="black" stroke="black" stroke-width="6"/>
<path d="M1131 224.575C1131 240.399 1130.98 265 1120.77 265C1110.55 265 1094 240.399 1094 224.575C1094 208.752 1110.55 192 1120.77 192C1130.98 192 1131 208.752 1131 224.575Z" fill="black"/>
<path d="M1131 224.575C1131 240.399 1130.98 265 1120.77 265C1110.55 265 1094 240.399 1094 224.575C1094 208.752 1110.55 192 1120.77 192C1130.98 192 1131 208.752 1131 224.575Z" fill="black"/>
<path d="M1046 144.575C1046 160.399 1046.02 185 1056.23 185C1066.45 185 1083 160.399 1083 144.575C1083 128.752 1066.45 112 1056.23 112C1046.02 112 1046 128.752 1046 144.575Z" fill="black"/>
<path d="M1046 144.575C1046 160.399 1046.02 185 1056.23 185C1066.45 185 1083 160.399 1083 144.575C1083 128.752 1066.45 112 1056.23 112C1046.02 112 1046 128.752 1046 144.575Z" fill="black"/>
<path d="M1126 317.5C1173.2 419.1 1270.67 437.167 1313.5 433.5" stroke="#12B3AB" stroke-width="40" stroke-linejoin="round" stroke-dasharray="30 30"/>
<circle cx="1343" cy="430" r="37" fill="#12B3AB"/>
<defs>
<filter id="filter0_i" x="917" y="41" width="297" height="297" filterUnits="userSpaceOnUse" color-interpolation-filters="sRGB">
<feFlood flood-opacity="0" result="BackgroundImageFix"/>
<feBlend mode="normal" in="SourceGraphic" in2="BackgroundImageFix" result="shape"/>
<feColorMatrix in="SourceAlpha" type="matrix" values="0 0 0 0 0 0 0 0 0 0 0 0 0 0 0 0 0 0 127 0" result="hardAlpha"/>
<feOffset dx="-23" dy="44"/>
<feComposite in2="hardAlpha" operator="arithmetic" k2="-1" k3="1"/>
<feColorMatrix type="matrix" values="0 0 0 0 0.756863 0 0 0 0 0.8 0 0 0 0 0.847059 0 0 0 1 0"/>
<feBlend mode="normal" in2="shape" result="effect1_innerShadow"/>
</filter>
</defs>
</svg>
