<svg width="432" height="432" viewBox="0 0 432 432" fill="none" xmlns="http://www.w3.org/2000/svg">
<g filter="url(#filter0_i)">
<circle cx="216" cy="216" r="153.353" transform="rotate(-50.1436 216 216)" fill="#12B3AB"/>
<circle cx="216" cy="216" r="153.353" transform="rotate(-50.1436 216 216)" fill="url(#paint0_linear)"/>
</g>
<circle cx="216" cy="216" r="140.853" transform="rotate(-50.1436 216 216)" stroke="black" stroke-width="25"/>
<path d="M187.307 159.226C187.307 159.225 187.303 159.218 187.297 159.204C187.304 159.219 187.307 159.226 187.307 159.226ZM190.569 154.292C190.57 154.292 190.562 154.292 190.546 154.291C190.561 154.291 190.569 154.291 190.569 154.292ZM168.267 139.545C168.268 139.545 168.271 139.552 168.277 139.566C168.27 139.552 168.267 139.545 168.267 139.545ZM165.005 144.479C165.005 144.478 165.012 144.479 165.028 144.48C165.013 144.48 165.005 144.479 165.005 144.479ZM196.138 161.519C197.172 159.955 197.223 158.305 197.044 157.159C196.872 156.051 196.449 155.101 196.065 154.395C195.292 152.974 194.134 151.573 192.909 150.298C190.4 147.688 186.78 144.759 182.652 142.028C178.523 139.298 174.41 137.114 171.026 135.828C169.373 135.2 167.63 134.683 166.02 134.528C165.22 134.451 164.18 134.435 163.093 134.71C161.969 134.994 160.47 135.687 159.436 137.251C158.402 138.815 158.351 140.465 158.53 141.611C158.702 142.719 159.125 143.669 159.509 144.375C160.282 145.796 161.44 147.197 162.665 148.473C165.174 151.083 168.794 154.012 172.923 156.742C177.052 159.472 181.164 161.656 184.548 162.942C186.201 163.57 187.944 164.087 189.554 164.242C190.354 164.319 191.394 164.335 192.481 164.06C193.605 163.776 195.104 163.083 196.138 161.519Z" fill="white" stroke="white" stroke-width="10"/>
<path d="M177.031 159.53L163.283 333.284C162.578 342.196 169.312 349.957 178.235 350.515L210 352.5H228.711C237.85 352.5 245.132 344.852 244.69 335.724C242.178 283.859 239.821 236.255 238.918 214.349C238.628 207.31 243.138 201.13 249.878 199.081L289.795 186.949C292.23 186.209 294.936 185.963 297.125 184.665C302.443 181.512 310.531 172.288 310.531 159.53C310.531 144.146 294.399 135.772 284.834 133.005C283.643 132.661 282.407 132.53 281.168 132.53H202.531C183.902 132.53 178.031 148.53 177.031 159.53Z" fill="white"/>
<circle cx="231.5" cy="158.823" r="9" fill="black"/>
<rect x="194.177" y="107.5" width="12" height="37" rx="6" fill="white" stroke="white" stroke-width="3"/>
<rect x="222.177" y="107.5" width="12" height="37" rx="6" fill="white" stroke="white" stroke-width="3"/>
<path d="M247.5 317.398C247.5 333.221 247.483 357.823 237.266 357.823C227.049 357.823 210.5 333.221 210.5 317.398C210.5 301.575 227.049 284.823 237.266 284.823C247.483 284.823 247.5 301.575 247.5 317.398Z" fill="black"/>
<path d="M247.5 317.398C247.5 333.221 247.483 357.823 237.266 357.823C227.049 357.823 210.5 333.221 210.5 317.398C210.5 301.575 227.049 284.823 237.266 284.823C247.483 284.823 247.5 301.575 247.5 317.398Z" fill="black"/>
<path d="M170 237.398C167.5 254 162.517 277.823 172.734 277.823C182.951 277.823 199.5 253.221 199.5 237.398C199.5 221.575 184.147 204.895 173.929 204.895C171 206.5 170 221.575 170 237.398Z" fill="black"/>
<circle cx="216" cy="216" r="140.853" transform="rotate(-50.1436 216 216)" stroke="white" stroke-width="25"/>
<defs>
<filter id="filter0_i" x="-4" y="0" width="436" height="436" filterUnits="userSpaceOnUse" color-interpolation-filters="sRGB">
<feFlood flood-opacity="0" result="BackgroundImageFix"/>
<feBlend mode="normal" in="SourceGraphic" in2="BackgroundImageFix" result="shape"/>
<feColorMatrix in="SourceAlpha" type="matrix" values="0 0 0 0 0 0 0 0 0 0 0 0 0 0 0 0 0 0 127 0" result="hardAlpha"/>
<feOffset dx="-20" dy="44"/>
<feGaussianBlur stdDeviation="2"/>
<feComposite in2="hardAlpha" operator="arithmetic" k2="-1" k3="1"/>
<feColorMatrix type="matrix" values="0 0 0 0 0.337255 0 0 0 0 0.380392 0 0 0 0 0.701961 0 0 0 1 0"/>
<feBlend mode="normal" in2="shape" result="effect1_innerShadow"/>
</filter>
<linearGradient id="paint0_linear" x1="216" y1="62.6474" x2="216" y2="369.353" gradientUnits="userSpaceOnUse">
<stop stop-color="#5661B3"/>
<stop offset="1" stop-color="white" stop-opacity="0"/>
</linearGradient>
</defs>
</svg>
