<svg version="1.1" id="Layer_1" xmlns="http://www.w3.org/2000/svg" xmlns:xlink="http://www.w3.org/1999/xlink" x="0px" y="0px"
	 width="300px" height="300px" viewBox="0 0 300 300" style="enable-background:new 0 0 300 300;" xml:space="preserve">
<g>
	<path d="M7.42,145.986C9.185,99.193,32.899,56.035,76.25,27.516c0.128,0.048,1.251-0.361,0.738,0.61
		c-3.434,3.184-65.172,76.114-8.344,133.68c0,0,29.858,28.704,53.011,1.468c0,0,22.847-29.577-0.289-74.413
		c0,0-5.856-14.64-26.955-23.721l16.992-18.748c0,0,14.359,6.161,25.478,22.871c0,0,0.593-17.593-12.884-36.34l26.345-29.89
		l26.08,29.609c0,0-11.993,16.991-12.876,36.902c0,0,8.191-13.477,25.776-23.151l16.686,18.748c0,0-16.045,5.287-26.794,23.529
		c-9.242,16.902-16.357,53.05,0.416,75.223c0,0,18.772,26.618,51.792-1.571c0,0,60.712-54.399-6.226-133.048
		c0,0-3.658-3.233,0.449-1.476c29.586,21.54,65.012,49.946,68.67,120.837c-1.444,85.966-59.012,147.334-143.074,147.334
		C68.934,295.968,4.95,227.283,7.42,145.986" fill="#4a5668" />
</g>
</svg>
